<svg width="16" height="16" viewBox="0 0 16 16" fill="none" xmlns="http://www.w3.org/2000/svg">
<g clip-path="url(#clip0_2633_2)">
<rect width="16" height="16" fill="black"/>
<path d="M8 0C3.58802 0 0 3.58728 0 7.99836C0 11.1688 1.85474 13.9159 4.53673 15.209V15.2156H4.54986C5.59376 15.7177 6.7657 16 8 16C12.412 16 16 12.4127 16 8.00164C16 3.58728 12.412 0 8 0ZM8 0.65641C12.0476 0.65641 15.3435 3.95159 15.3435 7.99836C15.3435 9.16021 15.071 10.263 14.5884 11.241C13.5314 10.729 12.4579 10.3483 11.3746 10.089V3.96472C11.3746 3.75138 11.2072 3.58072 10.9971 3.58072H9.65121H6.26016H4.91424C4.70743 3.58072 4.53673 3.75138 4.53673 3.96472V10.1186C3.48625 10.3778 2.44235 10.752 1.41485 11.2443C0.929011 10.263 0.656545 9.16349 0.656545 7.99836C0.656545 3.95159 3.9524 0.65641 8 0.65641ZM1.83833 11.9828C2.70825 11.5528 3.611 11.2213 4.54001 10.9916V14.4706C3.4403 13.8831 2.51128 13.0232 1.83833 11.9828ZM6.26016 15.1303V6.93497C6.26016 5.98646 7.03816 5.20205 7.96717 5.20205C8.89618 5.20205 9.65121 5.97005 9.65121 6.91528C9.65121 6.92185 9.64793 6.92841 9.64793 6.93497H9.65121V9.78708C8.86007 9.69518 8.06565 9.66564 7.27123 9.70831L6.61797 10.6568C7.63562 10.5715 8.627 10.5781 9.60525 10.6896C9.6151 10.6896 9.62167 10.6896 9.63151 10.6929C9.63808 10.6929 9.64464 10.6929 9.65449 10.6962C9.82519 10.7159 10.4456 10.7947 11.0135 10.9358L9.65449 11.3986V15.1565C9.12269 15.2779 8.57119 15.3469 8.00657 15.3469C7.39926 15.3403 6.81822 15.2648 6.26016 15.1303ZM11.3714 14.5165V11.008C12.2971 11.241 13.213 11.5824 14.1321 12.0287C13.4428 13.0757 12.4908 13.9356 11.3714 14.5165Z" fill="white"/>
</g>
<defs>
<clipPath id="clip0_2633_2">
<rect width="16" height="16" fill="white"/>
</clipPath>
</defs>
</svg>
