<svg width="64" height="64" viewBox="0 0 64 64" fill="none" xmlns="http://www.w3.org/2000/svg">
<g clip-path="url(#clip0_2633_6)">
<rect width="64" height="64" fill="black"/>
<path d="M32 0C14.3521 0 0 14.3491 0 31.9934C0 44.6753 7.41896 55.6636 18.1469 60.8361V60.8624H18.1994C22.3751 62.871 27.0628 64 32 64C49.6479 64 64 49.6509 64 32.0066C64 14.3491 49.6479 0 32 0ZM32 2.62564C48.1904 2.62564 61.3738 15.8064 61.3738 31.9934C61.3738 36.6408 60.284 41.0519 58.3537 44.9641C54.1256 42.9161 49.8318 41.3932 45.4986 40.3561V15.8589C45.4986 15.0055 44.8289 14.3229 43.9885 14.3229H38.6048H25.0406H19.657C18.8297 14.3229 18.1469 15.0055 18.1469 15.8589V40.4743C13.945 41.5114 9.76939 43.008 5.65942 44.9772C3.71604 41.0519 2.62618 36.654 2.62618 31.9934C2.62618 15.8064 15.8096 2.62564 32 2.62564ZM7.3533 47.9311C10.833 46.2113 14.444 44.8853 18.16 43.9664V57.8823C13.7612 55.5323 10.0451 52.0927 7.3533 47.9311ZM25.0406 60.521V27.7399C25.0406 23.9458 28.1526 20.8082 31.8687 20.8082C35.5847 20.8082 38.6048 23.8802 38.6048 27.6611C38.6048 27.6874 38.5917 27.7136 38.5917 27.7399H38.6048V39.1483C35.4403 38.7807 32.2626 38.6626 29.0849 38.8332L26.4719 42.6273C30.5425 42.286 34.508 42.3122 38.421 42.7586C38.4604 42.7586 38.4867 42.7586 38.5261 42.7717C38.5523 42.7717 38.5786 42.7717 38.618 42.7848C39.3008 42.8636 41.7825 43.1787 44.0542 43.7432L38.618 45.5943V60.6261C36.4908 61.1118 34.2848 61.3875 32.0263 61.3875C29.597 61.3612 27.2729 61.0593 25.0406 60.521ZM45.4854 58.0661V44.032C49.1883 44.9641 52.8519 46.3294 56.5285 48.1149C53.771 52.3028 49.9631 55.7424 45.4854 58.0661Z" fill="white"/>
</g>
<defs>
<clipPath id="clip0_2633_6">
<rect width="64" height="64" fill="white"/>
</clipPath>
</defs>
</svg>
