<svg width="32" height="32" viewBox="0 0 32 32" fill="none" xmlns="http://www.w3.org/2000/svg">
<g clip-path="url(#clip0_2633_4)">
<rect width="32" height="32" fill="black"/>
<path d="M16 0C7.17604 0 0 7.17457 0 15.9967C0 22.3376 3.70948 27.8318 9.07345 30.4181V30.4312H9.09971C11.1875 31.4355 13.5314 32 16 32C24.824 32 32 24.8254 32 16.0033C32 7.17456 24.824 0 16 0ZM16 1.31282C24.0952 1.31282 30.6869 7.90318 30.6869 15.9967C30.6869 18.3204 30.142 20.5259 29.1769 22.4821C27.0628 21.4581 24.9159 20.6966 22.7493 20.1781V7.92944C22.7493 7.50277 22.4144 7.16144 21.9943 7.16144H19.3024H12.5203H9.82848C9.41485 7.16144 9.07345 7.50277 9.07345 7.92944V20.2371C6.97251 20.7557 4.88469 21.504 2.82971 22.4886C1.85802 20.5259 1.31309 18.327 1.31309 15.9967C1.31309 7.90318 7.9048 1.31282 16 1.31282ZM3.67665 23.9655C5.4165 23.1056 7.22199 22.4427 9.08002 21.9832V28.9411C6.88059 27.7662 5.02257 26.0464 3.67665 23.9655ZM12.5203 30.2605V13.8699C12.5203 11.9729 14.0763 10.4041 15.9343 10.4041C17.7924 10.4041 19.3024 11.9401 19.3024 13.8306C19.3024 13.8437 19.2959 13.8568 19.2959 13.8699H19.3024V19.5742C17.7201 19.3904 16.1313 19.3313 14.5425 19.4166L13.2359 21.3136C15.2712 21.143 17.254 21.1561 19.2105 21.3793C19.2302 21.3793 19.2433 21.3793 19.263 21.3858C19.2762 21.3858 19.2893 21.3858 19.309 21.3924C19.6504 21.4318 20.8913 21.5893 22.0271 21.8716L19.309 22.7971V30.313C18.2454 30.5559 17.1424 30.6937 16.0131 30.6937C14.7985 30.6806 13.6364 30.5296 12.5203 30.2605ZM22.7427 29.033V22.016C24.5942 22.4821 26.4259 23.1647 28.2643 24.0574C26.8855 26.1514 24.9815 27.8712 22.7427 29.033Z" fill="white"/>
</g>
<defs>
<clipPath id="clip0_2633_4">
<rect width="32" height="32" fill="white"/>
</clipPath>
</defs>
</svg>
