<svg width="64" height="64" viewBox="0 0 64 64" fill="none" xmlns="http://www.w3.org/2000/svg">
<rect x="5" y="5" width="54" height="54" fill="#03031C"/>
<path d="M32 14C22.073 14 14 22.0714 14 31.9963C14 39.1298 18.1732 45.3108 24.2076 48.2203V48.2351H24.2372C26.586 49.3649 29.2228 50 32 50C41.927 50 50 41.9286 50 32.0037C50 22.0714 41.927 14 32 14ZM32 15.4769C41.1071 15.4769 48.5228 22.8911 48.5228 31.9963C48.5228 34.6105 47.9097 37.0917 46.824 39.2923C44.4456 38.1403 42.0304 37.2837 39.5929 36.7003V22.9206C39.5929 22.4406 39.2162 22.0566 38.7435 22.0566H35.7152H28.0853H25.057C24.5917 22.0566 24.2076 22.4406 24.2076 22.9206V36.7668C21.8441 37.3502 19.4953 38.192 17.1834 39.2997C16.0903 37.0917 15.4772 34.6178 15.4772 31.9963C15.4772 22.8911 22.8929 15.4769 32 15.4769ZM18.1362 40.9612C20.0936 39.9938 22.1247 39.248 24.215 38.7311V46.5588C21.7407 45.2369 19.6504 43.3022 18.1362 40.9612ZM28.0853 48.0431V29.6037C28.0853 27.4695 29.8359 25.7046 31.9261 25.7046C34.0164 25.7046 35.7152 27.4326 35.7152 29.5594C35.7152 29.5742 35.7078 29.5889 35.7078 29.6037H35.7152V36.0209C33.9352 35.8142 32.1477 35.7477 30.3603 35.8437L28.8904 37.9778C31.1801 37.7858 33.4108 37.8006 35.6118 38.0517C35.634 38.0517 35.6487 38.0517 35.6709 38.0591C35.6857 38.0591 35.7005 38.0591 35.7226 38.0665C36.1067 38.1108 37.5027 38.288 38.7805 38.6055L35.7226 39.6468V48.1022C34.5261 48.3754 33.2852 48.5305 32.0148 48.5305C30.6483 48.5157 29.341 48.3458 28.0853 48.0431ZM39.5856 46.6622V38.768C41.6684 39.2923 43.7292 40.0603 45.7973 41.0646C44.2462 43.4203 42.1042 45.3551 39.5856 46.6622Z" fill="white"/>
</svg>
